<mxfile host="app.diagrams.net" modified="2023-10-13T12:59:32.932Z" agent="Mozilla/5.0 (Windows NT 10.0; Win64; x64) AppleWebKit/537.36 (KHTML, like Gecko) Chrome/117.0.0.0 Safari/537.36 Edg/117.0.2045.60" etag="EmR790ps4iixtmjTUHyf" version="22.0.4" type="github">
  <diagram name="Page-1" id="2YBvvXClWsGukQMizWep">
    <mxGraphModel dx="1202" dy="807" grid="1" gridSize="10" guides="1" tooltips="1" connect="1" arrows="1" fold="1" page="1" pageScale="1" pageWidth="850" pageHeight="1100" math="0" shadow="0">
      <root>
        <mxCell id="0" />
        <mxCell id="1" parent="0" />
        <mxCell id="aM9ryv3xv72pqoxQDRHE-1" value=":计费模块" style="shape=umlLifeline;perimeter=lifelinePerimeter;whiteSpace=wrap;html=1;container=0;dropTarget=0;collapsible=0;recursiveResize=0;outlineConnect=0;portConstraint=eastwest;newEdgeStyle={&quot;edgeStyle&quot;:&quot;elbowEdgeStyle&quot;,&quot;elbow&quot;:&quot;vertical&quot;,&quot;curved&quot;:0,&quot;rounded&quot;:0};fontFamily=宋体;" parent="1" vertex="1">
          <mxGeometry x="60" y="40" width="100" height="450" as="geometry" />
        </mxCell>
        <mxCell id="aM9ryv3xv72pqoxQDRHE-2" value="" style="html=1;points=[];perimeter=orthogonalPerimeter;outlineConnect=0;targetShapes=umlLifeline;portConstraint=eastwest;newEdgeStyle={&quot;edgeStyle&quot;:&quot;elbowEdgeStyle&quot;,&quot;elbow&quot;:&quot;vertical&quot;,&quot;curved&quot;:0,&quot;rounded&quot;:0};fontFamily=宋体;" parent="aM9ryv3xv72pqoxQDRHE-1" vertex="1">
          <mxGeometry x="45" y="70" width="10" height="360" as="geometry" />
        </mxCell>
        <mxCell id="aM9ryv3xv72pqoxQDRHE-3" value="认证通过" style="html=1;verticalAlign=bottom;startArrow=oval;endArrow=block;startSize=8;edgeStyle=elbowEdgeStyle;elbow=vertical;curved=0;rounded=0;fontFamily=宋体;" parent="aM9ryv3xv72pqoxQDRHE-1" target="aM9ryv3xv72pqoxQDRHE-2" edge="1">
          <mxGeometry relative="1" as="geometry">
            <mxPoint x="-15" y="70" as="sourcePoint" />
          </mxGeometry>
        </mxCell>
        <mxCell id="aM9ryv3xv72pqoxQDRHE-5" value=":数据同步模块" style="shape=umlLifeline;perimeter=lifelinePerimeter;whiteSpace=wrap;html=1;container=0;dropTarget=0;collapsible=0;recursiveResize=0;outlineConnect=0;portConstraint=eastwest;newEdgeStyle={&quot;edgeStyle&quot;:&quot;elbowEdgeStyle&quot;,&quot;elbow&quot;:&quot;vertical&quot;,&quot;curved&quot;:0,&quot;rounded&quot;:0};fontFamily=宋体;" parent="1" vertex="1">
          <mxGeometry x="190" y="40" width="100" height="450" as="geometry" />
        </mxCell>
        <mxCell id="aM9ryv3xv72pqoxQDRHE-6" value="" style="html=1;points=[];perimeter=orthogonalPerimeter;outlineConnect=0;targetShapes=umlLifeline;portConstraint=eastwest;newEdgeStyle={&quot;edgeStyle&quot;:&quot;elbowEdgeStyle&quot;,&quot;elbow&quot;:&quot;vertical&quot;,&quot;curved&quot;:0,&quot;rounded&quot;:0};fontFamily=宋体;" parent="aM9ryv3xv72pqoxQDRHE-5" vertex="1">
          <mxGeometry x="45" y="70" width="10" height="360" as="geometry" />
        </mxCell>
        <mxCell id="dqNDvjQkV08bnkPfbxY3-1" value=":数据库" style="shape=umlLifeline;perimeter=lifelinePerimeter;whiteSpace=wrap;html=1;container=0;dropTarget=0;collapsible=0;recursiveResize=0;outlineConnect=0;portConstraint=eastwest;newEdgeStyle={&quot;edgeStyle&quot;:&quot;elbowEdgeStyle&quot;,&quot;elbow&quot;:&quot;vertical&quot;,&quot;curved&quot;:0,&quot;rounded&quot;:0};fontFamily=宋体;" parent="1" vertex="1">
          <mxGeometry x="310" y="40" width="100" height="450" as="geometry" />
        </mxCell>
        <mxCell id="dqNDvjQkV08bnkPfbxY3-2" value="" style="html=1;points=[];perimeter=orthogonalPerimeter;outlineConnect=0;targetShapes=umlLifeline;portConstraint=eastwest;newEdgeStyle={&quot;edgeStyle&quot;:&quot;elbowEdgeStyle&quot;,&quot;elbow&quot;:&quot;vertical&quot;,&quot;curved&quot;:0,&quot;rounded&quot;:0};fontFamily=宋体;" parent="dqNDvjQkV08bnkPfbxY3-1" vertex="1">
          <mxGeometry x="45" y="70" width="10" height="360" as="geometry" />
        </mxCell>
        <mxCell id="dqNDvjQkV08bnkPfbxY3-3" value=":数据转换模块" style="shape=umlLifeline;perimeter=lifelinePerimeter;whiteSpace=wrap;html=1;container=0;dropTarget=0;collapsible=0;recursiveResize=0;outlineConnect=0;portConstraint=eastwest;newEdgeStyle={&quot;edgeStyle&quot;:&quot;elbowEdgeStyle&quot;,&quot;elbow&quot;:&quot;vertical&quot;,&quot;curved&quot;:0,&quot;rounded&quot;:0};fontFamily=宋体;" parent="1" vertex="1">
          <mxGeometry x="440" y="40" width="100" height="220" as="geometry" />
        </mxCell>
        <mxCell id="dqNDvjQkV08bnkPfbxY3-4" value="" style="html=1;points=[];perimeter=orthogonalPerimeter;outlineConnect=0;targetShapes=umlLifeline;portConstraint=eastwest;newEdgeStyle={&quot;edgeStyle&quot;:&quot;elbowEdgeStyle&quot;,&quot;elbow&quot;:&quot;vertical&quot;,&quot;curved&quot;:0,&quot;rounded&quot;:0};fontFamily=宋体;" parent="dqNDvjQkV08bnkPfbxY3-3" vertex="1">
          <mxGeometry x="45" y="70" width="10" height="130" as="geometry" />
        </mxCell>
        <mxCell id="dqNDvjQkV08bnkPfbxY3-5" value=":硬件下发模块" style="shape=umlLifeline;perimeter=lifelinePerimeter;whiteSpace=wrap;html=1;container=0;dropTarget=0;collapsible=0;recursiveResize=0;outlineConnect=0;portConstraint=eastwest;newEdgeStyle={&quot;edgeStyle&quot;:&quot;elbowEdgeStyle&quot;,&quot;elbow&quot;:&quot;vertical&quot;,&quot;curved&quot;:0,&quot;rounded&quot;:0};fontFamily=宋体;" parent="1" vertex="1">
          <mxGeometry x="560" y="40" width="100" height="380" as="geometry" />
        </mxCell>
        <mxCell id="dqNDvjQkV08bnkPfbxY3-6" value="" style="html=1;points=[];perimeter=orthogonalPerimeter;outlineConnect=0;targetShapes=umlLifeline;portConstraint=eastwest;newEdgeStyle={&quot;edgeStyle&quot;:&quot;elbowEdgeStyle&quot;,&quot;elbow&quot;:&quot;vertical&quot;,&quot;curved&quot;:0,&quot;rounded&quot;:0};fontFamily=宋体;" parent="dqNDvjQkV08bnkPfbxY3-5" vertex="1">
          <mxGeometry x="45" y="240" width="10" height="90" as="geometry" />
        </mxCell>
        <mxCell id="dqNDvjQkV08bnkPfbxY3-8" value="" style="endArrow=classic;html=1;rounded=0;fontFamily=宋体;" parent="1" edge="1">
          <mxGeometry width="50" height="50" relative="1" as="geometry">
            <mxPoint x="120" y="130" as="sourcePoint" />
            <mxPoint x="235" y="130" as="targetPoint" />
          </mxGeometry>
        </mxCell>
        <mxCell id="dqNDvjQkV08bnkPfbxY3-11" value="1.通知数据同步模块&lt;br&gt;激活端口" style="edgeLabel;html=1;align=center;verticalAlign=middle;resizable=0;points=[];fontFamily=宋体;" parent="dqNDvjQkV08bnkPfbxY3-8" vertex="1" connectable="0">
          <mxGeometry x="-0.148" relative="1" as="geometry">
            <mxPoint x="6" y="-20" as="offset" />
          </mxGeometry>
        </mxCell>
        <mxCell id="dqNDvjQkV08bnkPfbxY3-12" value="" style="endArrow=classic;html=1;rounded=0;fontFamily=宋体;" parent="1" edge="1">
          <mxGeometry width="50" height="50" relative="1" as="geometry">
            <mxPoint x="245" y="160" as="sourcePoint" />
            <mxPoint x="350" y="160" as="targetPoint" />
          </mxGeometry>
        </mxCell>
        <mxCell id="dqNDvjQkV08bnkPfbxY3-13" value="2.将ACL信息写入&lt;br&gt;活动数据库" style="edgeLabel;html=1;align=center;verticalAlign=middle;resizable=0;points=[];fontFamily=宋体;" parent="dqNDvjQkV08bnkPfbxY3-12" vertex="1" connectable="0">
          <mxGeometry x="-0.148" relative="1" as="geometry">
            <mxPoint x="6" y="-20" as="offset" />
          </mxGeometry>
        </mxCell>
        <mxCell id="dqNDvjQkV08bnkPfbxY3-14" value="" style="endArrow=none;html=1;rounded=0;endFill=0;startArrow=classic;startFill=1;dashed=1;fontFamily=宋体;" parent="1" edge="1">
          <mxGeometry width="50" height="50" relative="1" as="geometry">
            <mxPoint x="370" y="230" as="sourcePoint" />
            <mxPoint x="480" y="230" as="targetPoint" />
          </mxGeometry>
        </mxCell>
        <mxCell id="dqNDvjQkV08bnkPfbxY3-15" value="4.ACL信息进行数据&lt;br&gt;转换写入硬件数据库" style="edgeLabel;html=1;align=center;verticalAlign=middle;resizable=0;points=[];fontFamily=宋体;" parent="dqNDvjQkV08bnkPfbxY3-14" vertex="1" connectable="0">
          <mxGeometry x="-0.148" relative="1" as="geometry">
            <mxPoint x="8" y="-20" as="offset" />
          </mxGeometry>
        </mxCell>
        <mxCell id="dqNDvjQkV08bnkPfbxY3-16" value="" style="endArrow=classic;html=1;rounded=0;fontFamily=宋体;" parent="1" edge="1">
          <mxGeometry width="50" height="50" relative="1" as="geometry">
            <mxPoint x="365" y="170" as="sourcePoint" />
            <mxPoint x="485" y="170.29" as="targetPoint" />
          </mxGeometry>
        </mxCell>
        <mxCell id="dqNDvjQkV08bnkPfbxY3-17" value="3.获取ACL信息" style="edgeLabel;html=1;align=center;verticalAlign=middle;resizable=0;points=[];fontFamily=宋体;" parent="dqNDvjQkV08bnkPfbxY3-16" vertex="1" connectable="0">
          <mxGeometry x="-0.148" relative="1" as="geometry">
            <mxPoint x="6" y="-10" as="offset" />
          </mxGeometry>
        </mxCell>
        <mxCell id="dqNDvjQkV08bnkPfbxY3-18" value="" style="endArrow=classic;html=1;rounded=0;fontFamily=宋体;" parent="1" target="dqNDvjQkV08bnkPfbxY3-6" edge="1">
          <mxGeometry width="50" height="50" relative="1" as="geometry">
            <mxPoint x="370" y="315" as="sourcePoint" />
            <mxPoint x="720" y="315" as="targetPoint" />
            <Array as="points">
              <mxPoint x="490" y="315" />
            </Array>
          </mxGeometry>
        </mxCell>
        <mxCell id="dqNDvjQkV08bnkPfbxY3-19" value="5.通知硬件下发模块将ACL规则&lt;br&gt;通过SAI下发到硬件" style="edgeLabel;html=1;align=center;verticalAlign=middle;resizable=0;points=[];fontFamily=宋体;" parent="dqNDvjQkV08bnkPfbxY3-18" vertex="1" connectable="0">
          <mxGeometry x="-0.148" relative="1" as="geometry">
            <mxPoint x="20" y="-25" as="offset" />
          </mxGeometry>
        </mxCell>
        <mxCell id="dqNDvjQkV08bnkPfbxY3-20" value="" style="endArrow=none;html=1;rounded=0;endFill=0;startArrow=classic;startFill=1;dashed=1;fontFamily=宋体;" parent="1" edge="1">
          <mxGeometry width="50" height="50" relative="1" as="geometry">
            <mxPoint x="370" y="350" as="sourcePoint" />
            <mxPoint x="600" y="350" as="targetPoint" />
          </mxGeometry>
        </mxCell>
        <mxCell id="dqNDvjQkV08bnkPfbxY3-21" value="6.将使用网络流量的数据写入计费数据库" style="edgeLabel;html=1;align=center;verticalAlign=middle;resizable=0;points=[];fontFamily=宋体;" parent="dqNDvjQkV08bnkPfbxY3-20" vertex="1" connectable="0">
          <mxGeometry x="-0.148" relative="1" as="geometry">
            <mxPoint x="13" y="-10" as="offset" />
          </mxGeometry>
        </mxCell>
        <mxCell id="dqNDvjQkV08bnkPfbxY3-24" value="" style="endArrow=classic;html=1;rounded=0;fontFamily=宋体;" parent="1" edge="1">
          <mxGeometry width="50" height="50" relative="1" as="geometry">
            <mxPoint x="120" y="390" as="sourcePoint" />
            <mxPoint x="235" y="389.17" as="targetPoint" />
          </mxGeometry>
        </mxCell>
        <mxCell id="dqNDvjQkV08bnkPfbxY3-25" value="7.通知数据同步模块&lt;br&gt;获取流量统计数据" style="edgeLabel;html=1;align=center;verticalAlign=middle;resizable=0;points=[];fontFamily=宋体;" parent="dqNDvjQkV08bnkPfbxY3-24" vertex="1" connectable="0">
          <mxGeometry x="-0.148" relative="1" as="geometry">
            <mxPoint x="6" y="-20" as="offset" />
          </mxGeometry>
        </mxCell>
        <mxCell id="dqNDvjQkV08bnkPfbxY3-26" value="" style="endArrow=classic;html=1;rounded=0;fontFamily=宋体;" parent="1" edge="1" target="dqNDvjQkV08bnkPfbxY3-2">
          <mxGeometry width="50" height="50" relative="1" as="geometry">
            <mxPoint x="245" y="410" as="sourcePoint" />
            <mxPoint x="350" y="410" as="targetPoint" />
          </mxGeometry>
        </mxCell>
        <mxCell id="dqNDvjQkV08bnkPfbxY3-27" value="8.从计费数据库中&lt;br&gt;获取数据" style="edgeLabel;html=1;align=center;verticalAlign=middle;resizable=0;points=[];fontFamily=宋体;" parent="dqNDvjQkV08bnkPfbxY3-26" vertex="1" connectable="0">
          <mxGeometry x="-0.148" relative="1" as="geometry">
            <mxPoint x="5" y="-20" as="offset" />
          </mxGeometry>
        </mxCell>
        <mxCell id="dqNDvjQkV08bnkPfbxY3-31" value="" style="endArrow=none;html=1;rounded=0;endFill=0;startArrow=classic;startFill=1;dashed=1;fontFamily=宋体;" parent="1" edge="1">
          <mxGeometry width="50" height="50" relative="1" as="geometry">
            <mxPoint x="245" y="440" as="sourcePoint" />
            <mxPoint x="350" y="440" as="targetPoint" />
          </mxGeometry>
        </mxCell>
        <mxCell id="dqNDvjQkV08bnkPfbxY3-32" value="9.返回数据" style="edgeLabel;html=1;align=center;verticalAlign=middle;resizable=0;points=[];fontFamily=宋体;" parent="dqNDvjQkV08bnkPfbxY3-31" vertex="1" connectable="0">
          <mxGeometry x="-0.148" relative="1" as="geometry">
            <mxPoint x="6" y="-10" as="offset" />
          </mxGeometry>
        </mxCell>
        <mxCell id="dqNDvjQkV08bnkPfbxY3-33" value="" style="endArrow=none;html=1;rounded=0;endFill=0;startArrow=classic;startFill=1;dashed=1;fontFamily=宋体;" parent="1" edge="1">
          <mxGeometry width="50" height="50" relative="1" as="geometry">
            <mxPoint x="120" y="450" as="sourcePoint" />
            <mxPoint x="235" y="450" as="targetPoint" />
          </mxGeometry>
        </mxCell>
        <mxCell id="dqNDvjQkV08bnkPfbxY3-34" value="10.返回数据" style="edgeLabel;html=1;align=center;verticalAlign=middle;resizable=0;points=[];fontFamily=宋体;" parent="dqNDvjQkV08bnkPfbxY3-33" vertex="1" connectable="0">
          <mxGeometry x="-0.148" relative="1" as="geometry">
            <mxPoint x="6" y="-10" as="offset" />
          </mxGeometry>
        </mxCell>
      </root>
    </mxGraphModel>
  </diagram>
</mxfile>
